<svg xmlns="http://www.w3.org/2000/svg" width="500" viewBox="0 0 375 375" height="500" version="1.0"><path d="M169.96 95.063c-7.78 3.515-10.124 13.765-4.815 20.8l1.417 1.914-1.914 3.582c-1.046 1.914-2.406 5.68-3.144 8.27-1.05 4.074-1.176 5.867-.805 13.09.309 7.097.184 8.515-.617 9.195-.492.434-1.852 2.594-2.96 4.879-2.966 5.926-7.286 13.828-7.966 14.691-.433.555-.433.801 0 .801.371 0 .801-.246 1.051-.555.184-.308 1.852-.925 3.766-1.359 4.257-.926 10.925-.059 19.195 2.594 13.336 4.258 17.656 7.097 25.004 16.36 2.96 3.827 6.355 7.468 7.406 8.21 1.418.863 1.727 1.297 1.11 1.48-7.47 2.286-11.297 5.31-14.446 11.544-2.652 5.37-3.703 11.48-3.27 19.199l.31 5.926-7.595.37c-11.976.555-21.914-1.421-32.16-6.359-7.16-3.457-11.668-7.222-13.828-11.48-1.234-2.531-1.48-3.89-1.422-8.274.063-6.234 1.297-10.183 6.176-19.937 7.469-14.941 7.531-18.336.059-4.262-3.086 5.867-6.973 16.113-7.899 20.988-1.113 5.497-.558 12.04 1.356 15.989 1.976 4.015 6.914 9.754 9.199 10.742.988.371 1.789.926 1.789 1.172 0 .25-4.812.617-10.617.867-10.309.43-20.8 1.293-23.89 1.973-4.384.988 3.827 2.285 21.237 3.336 12.899.8 98.399.8 111.114 0 10.125-.618 20.25-1.668 21.914-2.223 3.148-1.113-6.606-2.348-24.2-3.086-5.367-.25-9.75-.617-9.75-.926 0-.25.985-1.36 2.22-2.531 7.593-7.04 8.21-21.36 1.238-27.535-2.657-2.281-4.88-3.516-7.594-4.133-1.113-.188-2.04-.496-2.04-.559 0-.058.556-1.171 1.235-2.53.68-1.356 1.235-3.27 1.235-4.321-.059-2.531-2.532-8.332-4.875-11.297-1.051-1.356-1.914-2.59-1.914-2.777 0-.184.863-.493 1.851-.739 2.098-.433 8.645-6.793 8.645-8.336 0-.492-.309-1.976-.618-3.21-.742-2.59 0-4.567 4.692-12.223 3.887-6.297 5.308-10.617 5.617-17.285.246-5.059.121-6.418-1.05-9.567-.989-2.715-1.419-5.246-1.481-9.258-.125-6.668-.867-8.335-4.63-10.804-2.472-1.668-3.273-1.852-7.038-1.79-3.457.122-4.383-.124-5.555-1.175-.742-.676-2.902-1.973-4.754-2.84-7.719-3.516-14.879-4.32-24.508-2.777l-4.754.742-1.542-1.852c-.864-1.05-2.47-2.347-3.579-2.902-2.656-1.36-8.457-1.297-11.605.188zm40.99 7.16c13.456 3.207 24.816 14.566 27.284 27.343 1.297 6.914-.187 21.36-1.976 18.645-.492-.8-.742-.68-1.79.617-2.468 3.086-4.816 8.64-5.925 14.074-.926 4.754-1.234 5.496-2.223 5.188-1.36-.309-1.484 1.234-.187 2.344.496.433.926 1.171.926 1.605 0 .926-3.207 2.715-6.914 3.89-2.16.739-2.47.618-5.247-1.234-3.828-2.593-8.085-6.175-15.8-13.398-7.532-6.973-13.52-11.36-18.891-13.828-3.52-1.664-4.57-1.852-8.644-1.606l-4.692.188-1.11-3.086c-.804-2.41-1.05-4.508-.863-9.324.184-5.43.493-6.727 2.16-10.43 1.79-3.766 2.098-4.137 3.395-3.703.742.246 2.965.617 4.875.738 3.027.246 4.016.063 6.73-1.418 4.508-2.469 6.727-6.422 6.727-12.101v-4.133l2.656-.559c4.137-.926 15.125-.8 19.508.188zm0 0"/><path d="M215.023 144.816c-2.347 1.543-6.05 3.332-8.21 4.075-6.915 2.285-9.012 5.308-6.235 8.828 2.406 3.023 10.309 5.926 16.48 5.926 2.47 0 2.72-.125 3.645-2.348 2.098-5 1.606-19.32-.617-19.258-.434 0-2.656 1.297-5.063 2.777zm0 0"/></svg>